<svg width="851" height="676" viewBox="0 0 851 676" fill="none" xmlns="http://www.w3.org/2000/svg">
<path d="M254.235 132.021C250.794 201.352 191.127 254.726 120.965 251.235C50.8032 247.743 -3.28517 188.708 0.155456 119.376C3.59608 50.0442 63.2628 -3.32971 133.425 0.162004C203.587 3.65371 257.675 62.6888 254.235 132.021Z" fill="white"/>
<path d="M850.876 581.088C848.141 636.212 800.702 678.647 744.918 675.871C689.135 673.095 646.131 626.158 648.866 571.035C651.602 515.911 699.041 473.475 754.824 476.251C810.608 479.028 853.612 525.965 850.876 581.088Z" fill="white"/>
<path fill-rule="evenodd" clip-rule="evenodd" d="M692.32 565.418L145.206 157.572L156.977 142.14L704.091 549.986L692.32 565.418Z" fill="white"/>
<path d="M403.264 193.624C397.072 214.08 375.265 225.681 354.556 219.535C333.848 213.389 322.08 191.823 328.272 171.366C334.464 150.91 356.272 139.309 376.98 145.455C397.688 151.602 409.456 173.167 403.264 193.624Z" fill="white"/>
<path fill-rule="evenodd" clip-rule="evenodd" d="M363.305 206.523L323.822 274.358L310.25 266.631L349.732 198.796L363.305 206.523Z" fill="white"/>
<path d="M436.241 546.054C443.405 519.927 470.649 504.5 497.092 511.595C523.536 518.691 539.165 545.623 532.001 571.749C524.837 597.876 497.593 613.303 471.149 606.208C444.706 599.112 429.077 572.18 436.241 546.054Z" fill="white"/>
<path fill-rule="evenodd" clip-rule="evenodd" d="M486.441 528.726L534.206 441.456L551.661 450.793L503.895 538.063L486.441 528.726Z" fill="white"/>
</svg>
